<svg width="20" height="20" viewBox="0 0 20 20" fill="none" xmlns="http://www.w3.org/2000/svg">
<g clip-path="url(#clip0_100:954)">
<path d="M15.9024 17.5596C15.0617 18.2798 14.2516 18.9733 13.4409 19.6662C12.9429 20.092 12.5109 20.0954 12.0156 19.6723C11.1974 18.9733 10.3805 18.2716 9.54731 17.5569C8.70591 18.2764 7.87746 18.9808 7.0531 19.6914C6.80852 19.9019 6.54418 20.0252 6.21443 19.9666C5.82201 19.8972 5.5529 19.6512 5.49226 19.2574C5.45479 19.0128 5.45275 18.7608 5.45275 18.5114C5.45547 13.506 5.48068 8.50118 5.45275 3.49573C5.44525 2.08613 4.68834 1.06283 3.44839 0.401297C3.34074 0.344069 3.22833 0.295697 3.11796 0.243237C3.1166 0.204404 3.11592 0.164889 3.11523 0.126055C3.37072 0.0844962 3.6262 0.00751023 3.88169 0.00682894C7.62743 -0.000665277 11.3725 -0.00202786 15.1182 0.00478506C15.775 0.00614764 16.4468 -0.0292795 17.0851 0.0926718C18.8612 0.432637 19.9976 1.9124 19.999 3.80026C20.0024 8.68036 19.9983 13.5611 19.997 18.4412C19.997 18.679 20.0126 18.9202 19.9833 19.1552C19.8866 19.9278 19.0895 20.2548 18.4872 19.7589C17.7344 19.1382 17.002 18.493 16.2601 17.8587C16.1483 17.7627 16.0346 17.67 15.9024 17.5596ZM12.718 12.7225C12.718 12.7218 12.718 12.7218 12.718 12.7211C13.6037 12.7211 14.4887 12.7238 15.3744 12.7204C15.9433 12.7184 16.335 12.3634 16.3486 11.8477C16.363 11.3129 15.9862 10.913 15.4044 10.9089C13.6221 10.8966 11.8399 10.8973 10.0583 10.9082C9.46828 10.9116 9.09016 11.2999 9.10106 11.8341C9.11196 12.3648 9.50507 12.7197 10.0957 12.7218C10.9705 12.7245 11.8439 12.7225 12.718 12.7225ZM12.7262 7.27213C11.8521 7.27213 10.978 7.27008 10.1039 7.27281C9.50916 7.27485 9.11605 7.62299 9.10174 8.15304C9.08676 8.69944 9.47441 9.08505 10.0855 9.08777C11.8446 9.09595 13.6044 9.09527 15.3642 9.08777C15.9576 9.08573 16.348 8.71647 16.3514 8.18915C16.3548 7.64752 15.9501 7.27417 15.3485 7.27213C14.4737 7.27008 13.6003 7.27213 12.7262 7.27213ZM12.6901 5.45172C13.5526 5.45172 14.4145 5.4558 15.277 5.44831C15.4555 5.44695 15.6449 5.43196 15.8097 5.36996C16.1947 5.22553 16.4011 4.82356 16.3398 4.40457C16.2792 3.99034 15.9426 3.66469 15.4998 3.6531C14.7517 3.63335 14.0023 3.64357 13.2535 3.64289C12.1873 3.6422 11.1204 3.63539 10.0542 3.64629C9.41855 3.6531 9.01931 4.11775 9.11469 4.70706C9.18691 5.15535 9.54663 5.4449 10.0699 5.44899C10.9433 5.45649 11.8167 5.45103 12.6901 5.45172Z" fill="#898FA0"/>
<path d="M3.64549 7.01661C3.64549 8.19729 3.63867 9.37796 3.65026 10.5586C3.65298 10.8203 3.58349 10.9156 3.30757 10.9095C2.54725 10.8925 1.78624 10.9116 1.02592 10.9027C0.358937 10.8952 0.0101152 10.558 0.00807136 9.89507C-0.000104144 7.73742 -0.00555448 5.58045 0.00943394 3.42416C0.0162469 2.40358 0.850829 1.61465 1.85165 1.63168C2.87018 1.64871 3.65503 2.46899 3.65298 3.50864C3.65094 4.67773 3.6523 5.84683 3.6523 7.01593C3.65026 7.01661 3.64753 7.01661 3.64549 7.01661Z" fill="#898FA0"/>
</g>
<defs>
<clipPath id="clip0_100:954">
<rect width="20" height="19.9939" fill="white"/>
</clipPath>
</defs>
</svg>
