<svg width="26" height="26" viewBox="0 0 26 26" fill="none" xmlns="http://www.w3.org/2000/svg">
<g clip-path="url(#clip0_100:851)">
<path d="M24.2149 1.78487C21.8351 -0.594947 17.9768 -0.594947 15.597 1.78481L10.504 6.87787C8.04235 9.33959 8.27026 13.2619 10.504 15.4958C10.878 15.8698 11.2919 16.1748 11.7289 16.4253L12.6585 15.4958C13.2681 14.886 13.0535 14.1732 13.0426 13.6588C12.9088 13.5639 12.7786 13.4614 12.6585 13.3413C11.5122 12.1951 11.4606 10.2301 12.6585 9.03232C12.8364 8.85443 17.6435 4.04732 17.7514 3.93936C18.9397 2.75113 20.8721 2.75113 22.0604 3.93936C23.2486 5.12759 23.2486 7.06007 22.0604 8.2483L18.6939 11.6147C18.7913 12.1534 19.3755 13.4293 19.075 15.5341C19.0897 15.5197 19.1072 15.5104 19.1219 15.4958L24.2149 10.4027C26.5946 8.02294 26.5946 4.16468 24.2149 1.78487Z" fill="#0998A3"/>
<path d="M15.8903 10.1095C15.5163 9.73543 15.1024 9.43044 14.6655 9.17993L13.7359 10.1095C13.1262 10.7192 13.3408 11.432 13.3517 11.9463C13.4856 12.0412 13.6158 12.1437 13.7359 12.2639C14.8822 13.4102 14.9338 15.375 13.7359 16.5728C13.5577 16.7511 8.35237 21.9564 8.24822 22.0605C7.05999 23.2488 5.12751 23.2488 3.93928 22.0605C2.75105 20.8723 2.75105 18.9398 3.93928 17.7516L7.70049 13.9904C7.60315 13.4518 7.01886 12.1758 7.31943 10.071C7.30476 10.0855 7.28708 10.0949 7.27246 10.1094L1.78478 15.5972C-0.594928 17.977 -0.594928 21.8353 1.78478 24.2151C4.1646 26.5948 8.0228 26.5948 10.4026 24.2151L15.8903 18.7274C18.3063 16.3114 18.1743 12.3934 15.8903 10.1095Z" fill="#0998A3"/>
</g>
<defs>
<clipPath id="clip0_100:851">
<rect width="26" height="26" fill="white"/>
</clipPath>
</defs>
</svg>
