<svg width="20" height="18" viewBox="0 0 20 18" fill="none" xmlns="http://www.w3.org/2000/svg">
<path d="M20 0H16.4844V3.51562H20V0Z" fill="#898FA0"/>
<path d="M15.3125 0H0V3.51562H15.3125V0Z" fill="#898FA0"/>
<path d="M9.21973 11.7578C9.30617 13.5269 9.76961 14.5301 9.99988 14.7105C10.2302 14.5301 10.6936 13.5269 10.78 11.7578H9.21973Z" fill="#898FA0"/>
<path d="M8.46887 14.2836C8.23598 13.585 8.09039 12.704 8.04762 11.7578H6.49414C6.68961 12.9312 7.46168 13.9119 8.50844 14.3979C8.49512 14.3607 8.48191 14.3227 8.46887 14.2836Z" fill="#898FA0"/>
<path d="M9.99988 7.63327C9.76961 7.81362 9.30617 8.81682 9.21973 10.5859H10.78C10.6936 8.81682 10.2302 7.81362 9.99988 7.63327Z" fill="#898FA0"/>
<path d="M6.49414 10.5859H8.04762C8.09035 9.63969 8.23598 8.75875 8.46887 8.06012C8.48188 8.02106 8.49508 7.98309 8.50844 7.94586C7.46168 8.43184 6.68957 9.41254 6.49414 10.5859Z" fill="#898FA0"/>
<path d="M11.4922 7.94586C11.5055 7.98309 11.5187 8.02106 11.5318 8.06012C11.7646 8.75875 11.9103 9.63969 11.953 10.5859H13.5065C13.311 9.41254 12.5389 8.43184 11.4922 7.94586Z" fill="#898FA0"/>
<path d="M0 4.6875V17.6562H20V4.6875H0ZM10 15.8984C7.39375 15.8984 5.27344 13.7781 5.27344 11.1719C5.27344 8.56562 7.39375 6.44531 10 6.44531C12.6062 6.44531 14.7266 8.56562 14.7266 11.1719C14.7266 13.7781 12.6062 15.8984 10 15.8984Z" fill="#898FA0"/>
<path d="M11.953 11.7578C11.9102 12.7041 11.7646 13.585 11.5318 14.2836C11.5188 14.3227 11.5055 14.3607 11.4922 14.3979C12.5389 13.9119 13.311 12.9312 13.5065 11.7578H11.953Z" fill="#898FA0"/>
</svg>
