<svg width="20" height="21" viewBox="0 0 20 21" fill="none" xmlns="http://www.w3.org/2000/svg">
<g clip-path="url(#clip0_100:951)">
<path d="M9.13366 11.4412C9.13366 10.8613 9.13366 10.3363 9.13366 9.765C8.98935 9.765 8.86158 9.765 8.73316 9.765C6.7697 9.76566 4.80558 9.76831 2.84212 9.76698C1.11566 9.76566 0.00219079 8.65418 0.0015288 6.93434C0.00020482 5.53291 -0.00111916 4.13148 0.0015288 2.73071C0.00483874 1.16114 1.14545 0.00530479 2.71039 0.00331883C7.56475 -0.00131509 12.4191 -0.00131509 17.2735 0.00265684C18.8563 0.00398081 19.9962 1.15849 19.9989 2.74858C20.0015 4.18311 20.0009 5.61698 19.9989 7.05151C19.9969 8.60586 18.8378 9.76169 17.2735 9.76434C15.2769 9.76765 13.2797 9.765 11.2831 9.765C11.1534 9.765 11.0236 9.765 10.872 9.765C10.872 10.3323 10.872 10.8659 10.872 11.4445C11.0044 11.4445 11.1223 11.4445 11.2394 11.4445C12.5853 11.4445 13.9311 11.4431 15.2776 11.4451C16.7949 11.4471 17.8209 12.4639 17.7885 13.9825C17.7786 14.4472 17.8792 14.7041 18.33 14.9444C19.5196 15.5779 20.0585 16.9145 19.742 18.1822C19.4316 19.4261 18.3843 20.2727 17.057 20.3535C15.7145 20.4349 14.4514 19.4731 14.1443 18.1345C13.8245 16.7417 14.5103 15.3131 15.7741 14.8021C16.0409 14.6942 16.1335 14.5598 16.1018 14.2937C16.0872 14.1738 16.1011 14.0514 16.0991 13.9296C16.0898 13.4311 15.8158 13.1531 15.316 13.1524C13.6392 13.1497 11.9623 13.1517 10.2855 13.1517C8.43195 13.1517 6.57839 13.1504 4.72548 13.1517C4.13499 13.1524 3.90726 13.3808 3.90197 13.9686C3.90197 14.0017 3.90594 14.0355 3.9013 14.0679C3.84305 14.4664 3.96221 14.6968 4.36668 14.9014C5.55892 15.5051 6.14214 16.8251 5.86741 18.1027C5.5993 19.3506 4.54211 20.2449 3.20953 20.3509C1.87694 20.4568 0.594009 19.5128 0.259042 18.1809C-0.0865157 16.8046 0.580769 15.3423 1.83391 14.8193C2.13843 14.6922 2.22316 14.5386 2.20463 14.2367C2.16954 13.6687 2.22647 13.11 2.53695 12.6109C3.01953 11.835 3.7325 11.4537 4.63611 11.4458C6.00378 11.4339 7.37211 11.4412 8.74044 11.4405C8.85827 11.4412 8.97743 11.4412 9.13366 11.4412ZM4.81882 4.07984C4.37727 4.07984 3.93639 4.07322 3.49484 4.08183C2.97452 4.0911 2.66206 4.37972 2.6422 4.85371C2.62036 5.36543 2.91693 5.7421 3.43791 5.75865C4.34153 5.78777 5.24713 5.78844 6.15074 5.76063C6.64061 5.74541 6.96499 5.3449 6.9491 4.8782C6.93255 4.39561 6.60553 4.09176 6.0766 4.08183C5.65756 4.07389 5.23786 4.07984 4.81882 4.07984ZM15.3054 4.08117C15.3054 4.08051 15.3054 4.08051 15.3054 4.07984C14.8863 4.07984 14.4666 4.07984 14.0476 4.07984C14.0258 4.07984 14.0033 4.07984 13.9814 4.08051C13.4783 4.10169 13.1592 4.40091 13.1374 4.87291C13.1162 5.32769 13.43 5.73812 13.8973 5.75335C14.8228 5.78446 15.7502 5.78645 16.6757 5.75666C17.1636 5.74077 17.482 5.32637 17.4529 4.85834C17.4237 4.38634 17.1027 4.08977 16.5963 4.08117C16.166 4.07521 15.7357 4.08117 15.3054 4.08117ZM8.73779 4.9113C8.73647 5.59514 9.31041 6.18894 9.98101 6.19821C10.6648 6.20747 11.2606 5.60904 11.2606 4.91329C11.2613 4.24269 10.6635 3.64823 9.9916 3.64955C9.29386 3.65154 8.73912 4.21026 8.73779 4.9113Z" fill="#898FA0"/>
</g>
<defs>
<clipPath id="clip0_100:951">
<rect width="20" height="20.3595" fill="white"/>
</clipPath>
</defs>
</svg>
