<svg width="28" height="24" viewBox="0 0 28 24" fill="none" xmlns="http://www.w3.org/2000/svg">
<path fill-rule="evenodd" clip-rule="evenodd" d="M20.5857 0C22.3737 0 24.0937 0.706667 25.359 1.97467C26.6257 3.24 27.3337 4.94667 27.3337 6.73333V17.2667C27.3337 20.9867 24.307 24 20.5857 24H7.41366C3.69233 24 0.666992 20.9867 0.666992 17.2667V6.73333C0.666992 3.01333 3.67899 0 7.41366 0H20.5857ZM22.7072 8.72L22.8139 8.61333C23.1325 8.22667 23.1325 7.66667 22.7992 7.28C22.6139 7.08133 22.3592 6.96 22.0939 6.93333C21.8139 6.91867 21.5472 7.01333 21.3459 7.2L15.3339 12C14.5605 12.6413 13.4525 12.6413 12.6672 12L6.66719 7.2C6.25252 6.89333 5.67919 6.93333 5.33385 7.29333C4.97385 7.65333 4.93385 8.22667 5.23919 8.62667L5.41385 8.8L11.4805 13.5333C12.2272 14.12 13.1325 14.44 14.0805 14.44C15.0259 14.44 15.9472 14.12 16.6925 13.5333L22.7072 8.72Z" fill="#0998A3"/>
</svg>
