<svg width="44" height="34" viewBox="0 0 44 34" fill="none" xmlns="http://www.w3.org/2000/svg">
<path d="M26.3895 7.30718H20.2286C20.1276 7.30718 20.0457 7.22528 20.0457 7.1243V6.30738C20.0457 6.12897 19.8923 6.01296 19.762 6.09271L16.634 8.00679C16.4736 8.10493 16.4736 8.338 16.634 8.43614L19.762 10.3502C19.8923 10.43 20.0457 10.314 20.0457 10.1356V9.31863C20.0457 9.21765 20.1276 9.13575 20.2286 9.13575H26.4199C26.9305 9.13575 27.3434 8.71707 27.334 8.20428C27.3248 7.70103 26.893 7.30718 26.3895 7.30718Z" fill="#FECA57"/>
<path d="M27.2256 2.76625L24.0977 0.852168C23.9673 0.772418 23.8139 0.888434 23.8139 1.06684V1.88376C23.8139 1.98482 23.732 2.06672 23.6309 2.06672H17.4701C16.9667 2.06672 16.5348 2.46049 16.5255 2.96382C16.5161 3.47661 16.929 3.8953 17.4397 3.8953H23.6309C23.732 3.8953 23.8138 3.9772 23.8138 4.07826V4.8951C23.8138 5.0735 23.9672 5.18952 24.0976 5.10977L27.2255 3.19568C27.3861 3.09737 27.3861 2.8644 27.2256 2.76625Z" fill="#FF6B6B"/>
<path d="M17.9275 8.43614C17.767 8.338 17.767 8.10493 17.9275 8.00679L20.0457 6.71051V6.30738C20.0457 6.12897 19.8923 6.01296 19.762 6.09271L16.634 8.00679C16.4736 8.10493 16.4736 8.338 16.634 8.43614L19.762 10.3502C19.8923 10.43 20.0457 10.314 20.0457 10.1356V9.73242L17.9275 8.43614Z" fill="#F4B537"/>
<path d="M25.1072 1.88368V1.46997L24.0976 0.852168C23.9672 0.772418 23.8138 0.888434 23.8138 1.06684V1.88376C23.8138 1.98482 23.7319 2.06672 23.6309 2.06672H24.9243C25.0253 2.06664 25.1072 1.98474 25.1072 1.88368Z" fill="#EE5253"/>
<path d="M25.1072 4.07816C25.1072 3.9771 25.0253 3.8952 24.9243 3.8952H23.6309C23.7319 3.8952 23.8137 3.9771 23.8137 4.07816V4.895C23.8137 5.07341 23.9671 5.18942 24.0975 5.10967L25.1071 4.49187V4.07816H25.1072Z" fill="#EE5253"/>
<path d="M17.819 2.96375C17.8283 2.46042 18.2601 2.06665 18.7635 2.06665H17.4701C16.9667 2.06665 16.5348 2.46042 16.5255 2.96375C16.5161 3.47654 16.929 3.89523 17.4397 3.89523H18.7331C18.2225 3.89523 17.8096 3.47654 17.819 2.96375Z" fill="#EE5253"/>
<path d="M33.9075 7.27521C31.0358 7.27521 28.708 9.603 28.708 12.4747V14.6266C29.0555 14.3045 29.5499 14.1295 30.0325 14.1939V13.9348C30.0325 13.7289 30.2083 13.5662 30.4122 13.5816C32.4225 13.726 34.4684 13.0872 36.0153 12.0768C36.1596 11.9824 36.3509 12.0059 36.4682 12.132C37.7907 13.5535 37.7827 13.4985 37.7827 13.6842V14.1929C38.3117 14.1136 38.7809 14.2771 39.107 14.5802V12.4749C39.107 9.60308 36.7792 7.27521 33.9075 7.27521Z" fill="#3E4B5A"/>
<path d="M31.3612 12.4747C31.3612 10.0616 33.0051 8.03309 35.234 7.44657C34.8104 7.3351 34.366 7.27521 33.9075 7.27521C31.0358 7.27521 28.708 9.603 28.708 12.4747V14.6266C29.0555 14.3045 29.5499 14.1295 30.0325 14.1939V13.9348C30.0325 13.7289 30.2084 13.5662 30.4122 13.5816C30.7284 13.6043 31.0452 13.6056 31.3612 13.5912V12.4747Z" fill="#303F49"/>
<path d="M33.3144 21.6302C33.5241 21.5489 33.6624 21.3471 33.6624 21.1221V20.3864C32.9465 20.3382 32.3121 20.1191 31.7816 19.7802V21.4042C31.7816 21.5494 31.7233 21.6845 31.626 21.7843L33.3144 21.6302Z" fill="#FFBEAB"/>
<path d="M31.0769 22.8659C32.7342 24.6269 35.0771 24.6268 36.7343 22.8659L37.3227 22.2407L36.4572 21.9055C36.2579 21.8283 36.1266 21.6366 36.1266 21.4229V19.7228C35.5111 20.1473 34.766 20.3967 33.9633 20.3967C33.1233 20.3967 32.3851 20.166 31.7814 19.7803V21.4042C31.7814 21.6291 31.6432 21.831 31.4334 21.9123L30.5146 22.2685L31.0769 22.8659Z" fill="#FFBEAB"/>
<path d="M33.6621 20.3864C32.9462 20.3382 32.3119 20.1191 31.7814 19.7802V21.4042C31.7814 21.6291 31.6432 21.8309 31.4334 21.9122L30.5146 22.2684L31.0769 22.8659C31.8383 23.6748 32.7443 24.111 33.6621 24.1768V20.3864Z" fill="#F7AF9F"/>
<path d="M37.7054 13.9607V16.8089C37.7054 16.8398 37.7038 16.8703 37.7031 16.9011C38.7111 17.0537 39.5779 16.3254 39.5779 15.431C39.5779 14.5348 38.7104 13.8101 37.7054 13.9607Z" fill="#FFBEAB"/>
<path d="M30.1097 16.8089V13.9618C29.2322 13.8445 28.2373 14.518 28.2373 15.4309C28.2373 16.3242 29.1023 17.0538 30.1119 16.901C30.1113 16.8703 30.1097 16.8397 30.1097 16.8089Z" fill="#FFBEAB"/>
<path d="M38.9123 14.2268C38.5821 14.0037 38.1582 13.8928 37.7054 13.9607V16.809C37.7054 16.8398 37.7038 16.8703 37.7031 16.9011C38.1572 16.9698 38.5818 16.8587 38.9123 16.6352V14.2268Z" fill="#F7AF9F"/>
<path d="M30.1097 16.6355C29.7065 16.3628 29.444 15.9222 29.444 15.4311C29.444 14.9502 29.7202 14.536 30.1097 14.2686V13.9619C29.2322 13.8447 28.2373 14.5181 28.2373 15.4311C28.2373 16.3243 29.1023 17.0539 30.1119 16.9011C30.1112 16.8704 30.1097 16.8397 30.1097 16.809V16.6355Z" fill="#F7AF9F"/>
<path d="M36.469 11.8999C36.3516 11.7737 36.1604 11.7503 36.016 11.8446C34.4691 12.8552 32.4233 13.4939 30.413 13.3495C30.209 13.334 30.0332 13.4967 30.0332 13.7027V16.8089C30.0332 18.8053 31.5974 20.6286 33.9636 20.6286C36.0699 20.6286 37.7835 18.915 37.7835 16.8089V13.4519C37.7835 13.2664 37.7914 13.3214 36.469 11.8999Z" fill="#FFCDBF"/>
<path d="M32.6864 16.809V13.1979C31.9428 13.3459 31.1754 13.4043 30.413 13.3496C30.209 13.3341 30.0332 13.4968 30.0332 13.7028V16.809C30.0332 18.8054 31.5974 20.6288 33.9636 20.6288C34.4093 20.6288 34.8369 20.5514 35.2349 20.4104C33.7519 19.8854 32.6864 18.4695 32.6864 16.809Z" fill="#FFBEAB"/>
<path d="M41.8742 24.0033L37.2085 22.1964L36.6073 22.8353C35.0258 24.5156 32.7902 24.5157 31.2087 22.8353L30.6323 22.2229L26.0398 24.0033C26.0398 24.0033 23.9141 24.8773 23.9141 27.3007V32.679C23.9141 32.9521 24.1355 33.1735 24.4085 33.1735H43.5099C43.7806 33.1735 44.0001 32.954 44.0001 32.6833V27.3007C44.0001 24.8773 41.8742 24.0033 41.8742 24.0033Z" fill="#FF6B6B"/>
<path d="M26.5671 26.151C26.5671 24.5825 27.4574 23.6637 28.0856 23.2102L26.0398 24.0033C26.0398 24.0033 23.9141 24.8773 23.9141 27.3007V32.679C23.9141 32.9521 24.1355 33.1735 24.4085 33.1735H26.5672V26.151H26.5671Z" fill="#EE5253"/>
<path d="M28.1957 33.1735V28.1336C28.1957 27.7672 27.8987 27.4703 27.5324 27.4703C27.1661 27.4703 26.8691 27.7673 26.8691 28.1336V33.1735H28.1957Z" fill="#EE5253"/>
<path d="M41.0453 33.1735V28.1336C41.0453 27.7672 40.7483 27.4703 40.382 27.4703C40.0157 27.4703 39.7188 27.7673 39.7188 28.1336V33.1735H41.0453Z" fill="#EE5253"/>
<path d="M9.99342 7.27521C7.12173 7.27521 4.79395 9.603 4.79395 12.4747V14.6266C5.14148 14.3045 5.63579 14.1295 6.11841 14.1939V13.9348C6.11841 13.7289 6.29424 13.5662 6.49817 13.5816C8.50842 13.726 10.5543 13.0872 12.1012 12.0768C12.2456 11.9824 12.4368 12.0059 12.5542 12.132C13.8767 13.5535 13.8687 13.4985 13.8687 13.6842V14.1929C14.3976 14.1136 14.8668 14.2771 15.1929 14.5802V12.4749C15.1929 9.60308 12.8651 7.27521 9.99342 7.27521Z" fill="#3E4B5A"/>
<path d="M7.4471 12.4747C7.4471 10.0616 9.09108 8.03309 11.32 7.44657C10.8964 7.3351 10.452 7.27521 9.99343 7.27521C7.12174 7.27521 4.79395 9.603 4.79395 12.4747V14.6266C5.14148 14.3045 5.63579 14.1295 6.11842 14.1939V13.9348C6.11842 13.7289 6.29433 13.5662 6.49817 13.5816C6.81434 13.6043 7.13119 13.6056 7.4471 13.5912V12.4747Z" fill="#303F49"/>
<path d="M9.40033 21.6302C9.61002 21.5489 9.74829 21.3471 9.74829 21.1221V20.3864C9.03243 20.3382 8.39804 20.1191 7.86755 19.7802V21.4042C7.86755 21.5494 7.80928 21.6845 7.71191 21.7843L9.40033 21.6302Z" fill="#FFBEAB"/>
<path d="M7.16287 22.8659C8.82018 24.6269 11.163 24.6268 12.8202 22.8659L13.4086 22.2407L12.5432 21.9055C12.3439 21.8283 12.2126 21.6366 12.2126 21.4229V19.7228C11.5971 20.1473 10.8518 20.3967 10.0493 20.3967C9.20922 20.3967 8.47101 20.166 7.8673 19.7803V21.4042C7.8673 21.6291 7.72912 21.831 7.51934 21.9123L6.60059 22.2685L7.16287 22.8659Z" fill="#FFBEAB"/>
<path d="M9.74805 20.3864C9.03219 20.3382 8.3978 20.1191 7.8673 19.7802V21.4042C7.8673 21.6291 7.72912 21.8309 7.51934 21.9122L6.60059 22.2684L7.16288 22.8659C7.9242 23.6748 8.83024 24.111 9.74805 24.1768V20.3864Z" fill="#F7AF9F"/>
<path d="M13.7914 13.9607V16.8089C13.7914 16.8398 13.7898 16.8703 13.7891 16.9011C14.797 17.0537 15.6638 16.3254 15.6638 15.431C15.6637 14.5348 14.7963 13.8101 13.7914 13.9607Z" fill="#FFBEAB"/>
<path d="M6.19663 16.8089V13.9618C5.31912 13.8445 4.32422 14.518 4.32422 15.4309C4.32422 16.3242 5.18927 17.0538 6.19886 16.901C6.19809 16.8703 6.19663 16.8397 6.19663 16.8089Z" fill="#FFBEAB"/>
<path d="M14.9982 14.2268C14.668 14.0037 14.2441 13.8928 13.7914 13.9607V16.809C13.7914 16.8398 13.7897 16.8703 13.7891 16.9011C14.2432 16.9698 14.6678 16.8587 14.9982 16.6352V14.2268Z" fill="#F7AF9F"/>
<path d="M6.19663 16.6355C5.79341 16.3628 5.53096 15.9222 5.53096 15.4311C5.53096 14.9502 5.80716 14.536 6.19663 14.2686V13.9619C5.31912 13.8447 4.32422 14.5181 4.32422 15.4311C4.32422 16.3243 5.18927 17.0539 6.19886 16.9011C6.19809 16.8704 6.19663 16.8397 6.19663 16.809V16.6355Z" fill="#F7AF9F"/>
<path d="M12.5549 11.8999C12.4375 11.7737 12.2463 11.7503 12.1019 11.8446C10.5551 12.8552 8.50924 13.4939 6.4989 13.3495C6.29497 13.334 6.11914 13.4967 6.11914 13.7027V16.8089C6.11914 18.8053 7.68338 20.6286 10.0496 20.6286C12.1558 20.6286 13.8694 18.915 13.8694 16.8089V13.4519C13.8694 13.2664 13.8774 13.3214 12.5549 11.8999Z" fill="#FFCDBF"/>
<path d="M8.77229 16.809V13.1979C8.02876 13.3459 7.26134 13.4043 6.4989 13.3496C6.29497 13.3341 6.11914 13.4968 6.11914 13.7028V16.809C6.11914 18.8054 7.68338 20.6288 10.0496 20.6288C10.4953 20.6288 10.9229 20.5514 11.3209 20.4104C9.83783 19.8854 8.77229 18.4695 8.77229 16.809Z" fill="#FFBEAB"/>
<path d="M17.9602 24.0033L13.2944 22.1964L12.6932 22.8353C11.1117 24.5156 8.87614 24.5157 7.29463 22.8353L6.71825 22.2229L2.12575 24.0033C2.12575 24.0033 0 24.8773 0 27.3007V32.679C0 32.9521 0.221375 33.1735 0.494484 33.1735H19.5958C19.8665 33.1735 20.086 32.954 20.086 32.6833V27.3007C20.0859 24.8773 17.9602 24.0033 17.9602 24.0033Z" fill="#FECA57"/>
<path d="M2.65306 26.151C2.65306 24.5825 3.54329 23.6637 4.17158 23.2102L2.12575 24.0033C2.12575 24.0033 0 24.8773 0 27.3007V32.679C0 32.9521 0.221461 33.1735 0.494484 33.1735H2.65315V26.151H2.65306Z" fill="#F4B537"/>
<path d="M4.28161 33.1735V28.1336C4.28161 27.7672 3.98461 27.4703 3.61834 27.4703C3.25208 27.4703 2.95508 27.7673 2.95508 28.1336V33.1735H4.28161Z" fill="#F4B537"/>
<path d="M17.1312 33.1735V28.1336C17.1312 27.7672 16.8342 27.4703 16.468 27.4703C16.1016 27.4703 15.8047 27.7673 15.8047 28.1336V33.1735H17.1312Z" fill="#F4B537"/>
</svg>
