<svg width="44" height="44" viewBox="0 0 44 44" fill="none" xmlns="http://www.w3.org/2000/svg">
<g clip-path="url(#clip0_100:1036)">
<path d="M21.7235 44C31.1037 44 38.7078 42.4516 38.7078 40.5415C38.7078 38.6315 31.1037 37.0831 21.7235 37.0831C12.3434 37.0831 4.73926 38.6315 4.73926 40.5415C4.73926 42.4516 12.3434 44 21.7235 44Z" fill="#29E088"/>
<path d="M21.7236 37.0828C18.8012 37.0828 16.0517 37.2332 13.6506 37.4979C12.9698 37.5729 12.4551 38.1484 12.4551 38.8333C12.4551 39.6325 13.1483 40.256 13.9427 40.1686C16.3093 39.9082 18.994 39.768 21.7236 39.768C23.4162 39.768 25.0914 39.8221 26.6846 39.9251C27.4582 39.9752 28.1122 39.36 28.1122 38.5848V38.5843C28.1122 37.8773 27.5645 37.2894 26.8591 37.2439C25.2389 37.1393 23.5138 37.0828 21.7236 37.0828Z" fill="#79FF79"/>
<path d="M17.292 37.2031C17.1362 37.2116 16.9815 37.2206 16.8276 37.2299C16.1199 37.2731 15.5693 37.8618 15.5693 38.5708V38.5709C15.5693 39.3442 16.2202 39.9589 16.9921 39.9118C17.1407 39.9027 17.29 39.894 17.4399 39.8858C18.153 39.8466 18.7122 39.2587 18.7122 38.5445C18.7122 37.7724 18.0629 37.1609 17.292 37.2031Z" fill="#C2FFC2"/>
<path d="M19.9824 26.9469H23.4643V40.9181H19.9824V26.9469Z" fill="#DB765A"/>
<path d="M23.4643 26.9469V31.6102C22.8243 31.5046 22.2326 31.254 21.7233 30.8942C21.2141 31.254 20.6224 31.5046 19.9824 31.6102V26.9469H23.4643Z" fill="#B55434"/>
<path d="M23.4643 35.8189V40.9181H19.9824V38.616C20.0818 38.6249 20.1821 38.6294 20.2832 38.6294C21.9203 38.6294 23.2701 37.4022 23.4643 35.8189Z" fill="#B55434"/>
<path d="M19.9824 33.336V35.9367C19.9824 36.6608 20.5694 37.2477 21.2934 37.2477C22.0174 37.2477 22.6044 36.6608 22.6044 35.9367V33.336C22.6044 32.612 22.0174 32.025 21.2934 32.025C20.5693 32.025 19.9824 32.612 19.9824 33.336Z" fill="#F4A698"/>
<path d="M21.723 2.8078C21.723 11.5279 9.39378 25.0117 7.38405 27.1517C7.19043 27.3579 7.10046 27.6439 7.15572 27.9212C7.37829 29.037 8.36314 29.8779 9.54435 29.8779C10.8895 29.8779 11.9801 28.7874 11.9801 27.4422C11.9801 28.7874 13.0706 29.8779 14.4158 29.8779C15.761 29.8779 16.8515 28.7874 16.8515 27.4422C16.8515 28.7874 17.9421 29.8779 19.2873 29.8779C20.6324 29.8779 21.723 28.7874 21.723 27.4422C21.723 28.7874 22.8135 29.8779 24.1587 29.8779C25.5039 29.8779 26.5944 28.7874 26.5944 27.4422C26.5944 28.7874 27.685 29.8779 29.0302 29.8779C30.3753 29.8779 31.4659 28.7874 31.4659 27.4422C31.4659 28.7874 32.5564 29.8779 33.9016 29.8779C35.0828 29.8779 36.0677 29.037 36.2902 27.9212C36.3456 27.6439 36.2555 27.3578 36.0619 27.1517C34.0522 25.0117 21.723 11.528 21.723 2.8078Z" fill="#0CC166"/>
<path d="M36.0625 27.1519C36.2559 27.3578 36.3463 27.6442 36.2908 27.9217C36.0679 29.037 35.0833 29.8783 33.9018 29.8783C32.5565 29.8783 31.4663 28.7872 31.4663 27.4419C31.4663 28.7871 30.3761 29.8783 29.0308 29.8783C28.4509 29.8783 27.9192 29.676 27.5012 29.3377C28.5824 27.6541 29.209 25.6518 29.209 23.5027C29.209 23.4983 29.209 23.4939 29.2089 23.4894C29.2048 22.8952 28.6045 22.5024 28.0466 22.7071C27.5937 22.8733 27.1049 22.9639 26.5954 22.9639C25.6887 22.9639 24.8482 22.6775 24.159 22.1897C23.4707 22.6775 22.6293 22.9639 21.7235 22.9639C20.8177 22.9639 19.9763 22.6775 19.288 22.1897C18.5988 22.6775 17.7583 22.9639 16.8516 22.9639C15.9458 22.9639 15.1054 22.6775 14.4161 22.1897C13.7279 22.6775 12.8865 22.9639 11.9807 22.9639C11.6924 22.9639 11.4096 22.9353 11.1357 22.8798C15.4616 17.6562 21.7235 9.02229 21.7235 2.8078C21.7234 11.5275 34.053 25.0117 36.0625 27.1519Z" fill="#04A550"/>
<path d="M33.5643 18.4402C32.4914 17.4696 29.0594 14.1921 26.1646 9.51978H17.2818C14.387 14.1921 10.955 17.4696 9.88206 18.4402C9.64161 18.6577 9.53565 18.9892 9.61067 19.3046C9.8659 20.3768 10.83 21.1742 11.9802 21.1742C13.3254 21.1742 14.416 20.0836 14.416 18.7385C14.416 20.0836 15.5065 21.1742 16.8517 21.1742C18.1969 21.1742 19.2874 20.0836 19.2874 18.7385C19.2874 20.0836 20.378 21.1742 21.7231 21.1742C23.0683 21.1742 24.1589 20.0836 24.1589 18.7385C24.1589 20.0836 25.2494 21.1742 26.5946 21.1742C27.9398 21.1742 29.0303 20.0836 29.0303 18.7385C29.0303 20.0836 30.1208 21.1742 31.466 21.1742C32.6163 21.1742 33.5804 20.3768 33.8356 19.3046C33.9107 18.9892 33.8047 18.6577 33.5643 18.4402Z" fill="#29E088"/>
<path d="M33.8357 19.3048C33.5806 20.3772 32.6166 21.1737 31.4664 21.1737C30.7942 21.1737 30.1846 20.9016 29.7443 20.4603C29.303 20.02 29.0309 19.4104 29.0309 18.7382C29.0309 20.0835 27.9398 21.1737 26.5954 21.1737C25.7558 21.1737 25.0156 20.7494 24.577 20.1023C24.6307 20.105 24.6844 20.1059 24.7381 20.1059C27.0313 20.1059 28.8904 18.2469 28.8904 15.9537C28.8904 15.9484 28.8904 15.9431 28.8904 15.9378C28.8876 15.1778 28.3964 14.4949 27.6765 14.2511C27.2877 14.1194 26.924 13.9326 26.5954 13.6999C25.9062 14.1877 25.0657 14.4741 24.159 14.4741C23.2532 14.4741 22.4128 14.1877 21.7235 13.6999C21.0343 14.1877 20.1939 14.4741 19.2881 14.4741C18.3814 14.4741 17.5409 14.1877 16.8517 13.6999C16.1634 14.1877 15.3229 14.4741 14.4162 14.4741C14.1799 14.4741 13.9471 14.4544 13.7207 14.4168C14.8691 13.0491 16.1195 11.3969 17.2822 9.5199H26.1649C29.0595 14.1921 32.4921 17.4699 33.5644 18.4401C33.8052 18.6577 33.9109 18.9889 33.8357 19.3048Z" fill="#0CC166"/>
<path d="M21.7235 0C21.3938 0 21.0928 0.187688 20.9494 0.484602C18.9818 4.55959 13.8352 8.79424 12.3731 9.94486C12.1007 10.1592 11.9699 10.513 12.0551 10.8489C12.3225 11.9037 13.2782 12.6841 14.4162 12.6841C15.7614 12.6841 16.8519 11.5936 16.8519 10.2484C16.8519 11.5936 17.9425 12.6841 19.2877 12.6841C20.6328 12.6841 21.7234 11.5936 21.7234 10.2484C21.7234 11.5936 22.8139 12.6841 24.1591 12.6841C25.5043 12.6841 26.5948 11.5936 26.5948 10.2484C26.5948 11.5936 27.6854 12.6841 29.0306 12.6841C30.1686 12.6841 31.1242 11.9037 31.3917 10.8489C31.4769 10.513 31.3461 10.1592 31.0737 9.94486C29.6116 8.79424 24.4651 4.55967 22.4974 0.484602C22.3542 0.187688 22.0532 0 21.7235 0V0Z" fill="#79FF79"/>
<path d="M31.3919 10.8491C31.1243 11.9034 30.1683 12.684 29.0307 12.684C27.6854 12.684 26.5952 11.5938 26.5952 10.2485C26.5952 11.5938 25.5042 12.684 24.1588 12.684C23.3183 12.684 22.5772 12.2579 22.1387 11.6108C24.5778 11.4005 26.4905 9.35437 26.4905 6.86072C26.4905 6.44539 26.4377 6.0426 26.3374 5.65863C28.2672 7.6779 30.2525 9.29799 31.0741 9.9451C31.3463 10.159 31.477 10.5125 31.3919 10.8491Z" fill="#29E088"/>
<path d="M24.3684 41.3556L25.1852 40.5389C25.4459 40.2781 25.3843 39.9388 25.0362 39.817C24.8744 39.7603 24.7016 39.8037 24.5869 39.9185L24.0638 40.4416V39.3778C24.0638 39.1397 23.8709 38.9468 23.6328 38.9468C23.3948 38.9468 23.2018 39.1398 23.2018 39.3778V40.4412L22.6887 39.9281C22.6065 39.8459 22.4964 39.7937 22.3801 39.7923C21.9922 39.7877 21.7966 40.2553 22.0695 40.5282L22.8969 41.3556C23.0922 41.5509 23.357 41.6605 23.6332 41.6603C23.9089 41.6603 24.1734 41.5507 24.3684 41.3556Z" fill="#04A550"/>
<path d="M32.4866 38.7922L33.3033 37.9754C33.5641 37.7147 33.5025 37.3753 33.1543 37.2536C32.9925 37.1969 32.8198 37.2403 32.7051 37.3551L32.182 37.8782V36.8143C32.182 36.5763 31.989 36.3834 31.751 36.3834C31.5129 36.3834 31.32 36.5763 31.32 36.8143V37.8778L30.8069 37.3647C30.7246 37.2824 30.6145 37.2303 30.4983 37.2289C30.1103 37.2243 29.9148 37.6918 30.1877 37.9648L31.0151 38.7922C31.2103 38.9874 31.4752 39.0971 31.7513 39.0969C32.0271 39.0968 32.2916 38.9873 32.4866 38.7922Z" fill="#04A550"/>
<path d="M20.8157 41.8314L21.6324 41.0146C21.8932 40.7539 21.8316 40.4145 21.4834 40.2927C21.3216 40.2361 21.1489 40.2795 21.0342 40.3942L20.5111 40.9173V39.8535C20.5111 39.6155 20.3181 39.4225 20.0801 39.4225C19.842 39.4225 19.6491 39.6155 19.6491 39.8535V40.917L19.136 40.4039C19.0537 40.3216 18.9436 40.2695 18.8274 40.2681C18.4394 40.2634 18.2439 40.731 18.5168 41.004L19.3442 41.8314C19.5394 42.0266 19.8043 42.1363 20.0804 42.1361C20.3562 42.136 20.6206 42.0264 20.8157 41.8314Z" fill="#79FF79"/>
<path d="M11.2991 41.9702L12.1159 41.1534C12.3766 40.8927 12.315 40.5533 11.9668 40.4315C11.805 40.3749 11.6323 40.4183 11.5176 40.533L10.9945 41.0561V39.9923C10.9945 39.7543 10.8015 39.5613 10.5635 39.5613C10.3254 39.5613 10.1325 39.7543 10.1325 39.9923V41.0558L9.61937 40.5427C9.53713 40.4604 9.42704 40.4083 9.31077 40.4069C8.92284 40.4022 8.72725 40.8698 9.00019 41.1428L9.8276 41.9702C10.0228 42.1654 10.2877 42.2751 10.5638 42.2749C10.8396 42.2748 11.104 42.1652 11.2991 41.9702Z" fill="#04A550"/>
<path d="M18.2486 4.40817C17.2924 5.51573 16.2578 6.54835 15.31 7.42792C14.4236 8.2506 15.0054 9.73303 16.2148 9.73303C16.5777 9.73303 16.9274 9.59699 17.1932 9.34983C18.1985 8.41509 19.2746 7.3346 20.2793 6.16885C20.7396 5.63467 20.7035 4.83364 20.1965 4.34345C20.1901 4.33718 20.1835 4.33091 20.1771 4.32463C19.6289 3.79474 18.7468 3.8311 18.2486 4.40817Z" fill="#C2FFC2"/>
<path d="M10.2283 23.9589C10.0874 24.1243 9.94965 24.2849 9.81541 24.4405C9.06526 25.3101 9.68444 26.6587 10.8329 26.6587H10.8331C11.2234 26.6587 11.5942 26.4894 11.8491 26.1938C11.9867 26.0342 12.1279 25.8695 12.2723 25.6999C13.0144 24.8284 12.3949 23.4869 11.2502 23.4869C10.8571 23.487 10.4832 23.6597 10.2283 23.9589Z" fill="#29E088"/>
<path d="M12.8726 18.7227C13.6024 17.9638 14.4647 17.0117 15.3726 15.8939C15.9607 15.1699 15.4455 14.0869 14.5128 14.0869C14.1855 14.0869 13.8753 14.2324 13.6644 14.4826C12.7481 15.5694 11.8987 16.4737 11.2122 17.1651C10.7369 17.6438 10.7942 18.4327 11.3358 18.8347C11.342 18.8393 11.3483 18.8439 11.3545 18.8485C11.8207 19.1943 12.4703 19.1412 12.8726 18.7227Z" fill="#79FF79"/>
</g>
<defs>
<clipPath id="clip0_100:1036">
<rect width="44" height="44" fill="white"/>
</clipPath>
</defs>
</svg>
