<svg width="20" height="18" viewBox="0 0 20 18" fill="none" xmlns="http://www.w3.org/2000/svg">
<path fill-rule="evenodd" clip-rule="evenodd" d="M15.2878 5.68332H19.1663C19.1663 2.56921 17.3004 0.75 14.1389 0.75H5.86042C2.69893 0.75 0.833008 2.56921 0.833008 5.6436V12.3564C0.833008 15.4308 2.69893 17.25 5.86042 17.25H14.1389C17.3004 17.25 19.1663 15.4308 19.1663 12.3564V12.0704H15.2878C13.4878 12.0704 12.0286 10.6477 12.0286 8.89275C12.0286 7.13778 13.4878 5.71509 15.2878 5.71509V5.68332ZM15.2878 7.04971H18.4819C18.8599 7.04971 19.1663 7.34848 19.1663 7.71702V10.0367C19.1619 10.4035 18.8581 10.6997 18.4819 10.704H15.3612C14.4499 10.716 13.653 10.1077 13.4463 9.2423C13.3428 8.7051 13.4881 8.15077 13.8433 7.72787C14.1985 7.30496 14.7272 7.05674 15.2878 7.04971ZM15.4263 9.48857H15.7278C16.1148 9.48857 16.4286 9.18269 16.4286 8.80537C16.4286 8.42805 16.1148 8.12217 15.7278 8.12217H15.4263C15.2413 8.12005 15.063 8.19026 14.9313 8.31712C14.7997 8.44399 14.7256 8.61695 14.7256 8.79743C14.7256 9.17605 15.038 9.48421 15.4263 9.48857ZM5.17597 5.68332H10.35C10.7371 5.68332 11.0508 5.37744 11.0508 5.00012C11.0508 4.6228 10.7371 4.31692 10.35 4.31692H5.17597C4.79212 4.3169 4.47969 4.61796 4.47523 4.99218C4.4752 5.3708 4.78765 5.67897 5.17597 5.68332Z" fill="#898FA0"/>
</svg>
