<svg width="20" height="20" viewBox="0 0 20 20" fill="none" xmlns="http://www.w3.org/2000/svg">
<g clip-path="url(#clip0_100:941)">
<path d="M13.8165 7.01773C11.2578 7.01773 8.73851 7.01773 6.22384 7.01773C5.93051 7.82752 5.92184 11.3384 6.21184 12.3096C8.73451 12.3096 11.2625 12.3096 13.8152 12.3096C14.0638 10.5472 14.0598 8.7994 13.8165 7.01773Z" fill="#898FA0"/>
<path d="M13.5863 13.6681C11.1762 13.6681 8.80492 13.6681 6.40625 13.6681C6.79625 15.2691 7.26758 16.8083 8.37158 18.0612C9.44292 19.2769 10.5643 19.2689 11.6403 18.0472C12.5569 17.0069 13.0269 15.7461 13.3956 14.4387C13.4643 14.1949 13.5176 13.9471 13.5863 13.6681Z" fill="#898FA0"/>
<path d="M6.41016 5.66519C8.81882 5.66519 11.1915 5.66519 13.5908 5.66519C13.2015 4.06554 12.7295 2.52635 11.6275 1.2728C10.5635 0.0631042 9.45015 0.0631046 8.38149 1.25885C7.44882 2.30181 6.97549 3.57329 6.60282 4.89128C6.53349 5.13508 6.48016 5.38286 6.41016 5.66519Z" fill="#898FA0"/>
<path d="M19.6343 7.02571C18.1503 7.02571 16.6803 7.02571 15.169 7.02571C15.3863 8.79144 15.3863 10.5392 15.167 12.3236C15.4403 12.3236 15.6703 12.3236 15.901 12.3236C17.0543 12.3236 18.2083 12.3236 19.3617 12.3229C19.5023 12.3229 19.633 12.3495 19.6856 12.1409C20.1163 10.4343 20.1096 8.7363 19.6343 7.02571Z" fill="#898FA0"/>
<path d="M4.83046 7.02638C3.32446 7.02638 1.86113 7.02638 0.399129 7.02638C-0.0668709 8.21084 -0.184204 10.5299 0.369796 12.3023C1.83446 12.3023 3.30713 12.3023 4.82646 12.3023C4.61446 10.5432 4.60979 8.7941 4.83046 7.02638Z" fill="#898FA0"/>
<path d="M12.3184 19.328C15.4717 18.5215 17.7344 16.6449 19.157 13.6734C17.7324 13.6734 16.3637 13.6734 14.9604 13.6734C14.493 15.7341 13.849 17.731 12.3184 19.328Z" fill="#898FA0"/>
<path d="M12.2852 0.0119557C13.8292 1.59832 14.4958 3.57331 14.9598 5.66122C16.3372 5.66122 17.7105 5.66122 19.0838 5.66122C18.8218 3.63774 14.7858 0.267049 12.2852 0.0119557Z" fill="#898FA0"/>
<path d="M7.68646 -1.14441e-05C4.52846 0.810443 2.2658 2.68445 0.841797 5.65457C2.27046 5.65457 3.64646 5.65457 5.04046 5.65457C5.50313 3.57795 6.1598 1.58968 7.68646 -1.14441e-05Z" fill="#898FA0"/>
<path d="M5.03586 13.6648C3.6432 13.6648 2.27186 13.6648 0.894531 13.6648C1.80853 16.1447 4.5932 18.7062 7.7232 19.3333C6.1692 17.735 5.50253 15.7647 5.03586 13.6648Z" fill="#898FA0"/>
</g>
<defs>
<clipPath id="clip0_100:941">
<rect width="20" height="19.3333" fill="white" transform="matrix(1 0 0 -1 0 19.3333)"/>
</clipPath>
</defs>
</svg>
